<mxfile host="app.diagrams.net" modified="2024-07-04T14:20:15.670Z" agent="Mozilla/5.0 (Windows NT 10.0; Win64; x64) AppleWebKit/537.36 (KHTML, like Gecko) Chrome/126.0.0.0 Safari/537.36" etag="Pnk6O7gu_5sJFDm6UpoW" version="24.6.4" type="google">
  <diagram id="C5RBs43oDa-KdzZeNtuy" name="Page-1">
    <mxGraphModel grid="1" page="1" gridSize="10" guides="1" tooltips="1" connect="1" arrows="1" fold="1" pageScale="1" pageWidth="827" pageHeight="1169" math="0" shadow="0">
      <root>
        <mxCell id="WIyWlLk6GJQsqaUBKTNV-0" />
        <mxCell id="WIyWlLk6GJQsqaUBKTNV-1" parent="WIyWlLk6GJQsqaUBKTNV-0" />
        <mxCell id="THHTDaYiPmMmUgXNTNZC-5" value="" style="edgeStyle=orthogonalEdgeStyle;rounded=0;orthogonalLoop=1;jettySize=auto;html=1;" edge="1" parent="WIyWlLk6GJQsqaUBKTNV-1" source="THHTDaYiPmMmUgXNTNZC-0" target="THHTDaYiPmMmUgXNTNZC-1">
          <mxGeometry relative="1" as="geometry" />
        </mxCell>
        <mxCell id="THHTDaYiPmMmUgXNTNZC-0" value="Begin&amp;nbsp;" style="ellipse;whiteSpace=wrap;html=1;" vertex="1" parent="WIyWlLk6GJQsqaUBKTNV-1">
          <mxGeometry x="354" y="80" width="120" height="80" as="geometry" />
        </mxCell>
        <mxCell id="THHTDaYiPmMmUgXNTNZC-8" value="" style="edgeStyle=orthogonalEdgeStyle;rounded=0;orthogonalLoop=1;jettySize=auto;html=1;" edge="1" parent="WIyWlLk6GJQsqaUBKTNV-1" source="THHTDaYiPmMmUgXNTNZC-1" target="THHTDaYiPmMmUgXNTNZC-6">
          <mxGeometry relative="1" as="geometry" />
        </mxCell>
        <mxCell id="THHTDaYiPmMmUgXNTNZC-1" value="Input a" style="shape=parallelogram;perimeter=parallelogramPerimeter;whiteSpace=wrap;html=1;fixedSize=1;" vertex="1" parent="WIyWlLk6GJQsqaUBKTNV-1">
          <mxGeometry x="324" y="200" width="180" height="60" as="geometry" />
        </mxCell>
        <mxCell id="THHTDaYiPmMmUgXNTNZC-16" value="" style="edgeStyle=orthogonalEdgeStyle;rounded=0;orthogonalLoop=1;jettySize=auto;html=1;" edge="1" parent="WIyWlLk6GJQsqaUBKTNV-1" source="THHTDaYiPmMmUgXNTNZC-6" target="THHTDaYiPmMmUgXNTNZC-15">
          <mxGeometry relative="1" as="geometry" />
        </mxCell>
        <mxCell id="THHTDaYiPmMmUgXNTNZC-21" style="edgeStyle=orthogonalEdgeStyle;rounded=0;orthogonalLoop=1;jettySize=auto;html=1;" edge="1" parent="WIyWlLk6GJQsqaUBKTNV-1" source="THHTDaYiPmMmUgXNTNZC-6" target="THHTDaYiPmMmUgXNTNZC-11">
          <mxGeometry relative="1" as="geometry" />
        </mxCell>
        <mxCell id="THHTDaYiPmMmUgXNTNZC-6" value="a &amp;gt;= 75" style="rhombus;whiteSpace=wrap;html=1;" vertex="1" parent="WIyWlLk6GJQsqaUBKTNV-1">
          <mxGeometry x="344" y="300" width="140" height="80" as="geometry" />
        </mxCell>
        <mxCell id="THHTDaYiPmMmUgXNTNZC-11" value="Output &quot; Loai A &quot;" style="shape=parallelogram;perimeter=parallelogramPerimeter;whiteSpace=wrap;html=1;fixedSize=1;" vertex="1" parent="WIyWlLk6GJQsqaUBKTNV-1">
          <mxGeometry x="80" y="310" width="160" height="60" as="geometry" />
        </mxCell>
        <mxCell id="THHTDaYiPmMmUgXNTNZC-13" value="True" style="text;html=1;align=center;verticalAlign=middle;resizable=0;points=[];autosize=1;strokeColor=none;fillColor=none;" vertex="1" parent="WIyWlLk6GJQsqaUBKTNV-1">
          <mxGeometry x="290" y="310" width="50" height="30" as="geometry" />
        </mxCell>
        <mxCell id="THHTDaYiPmMmUgXNTNZC-22" style="edgeStyle=orthogonalEdgeStyle;rounded=0;orthogonalLoop=1;jettySize=auto;html=1;entryX=0;entryY=0.5;entryDx=0;entryDy=0;" edge="1" parent="WIyWlLk6GJQsqaUBKTNV-1" source="THHTDaYiPmMmUgXNTNZC-15" target="THHTDaYiPmMmUgXNTNZC-20">
          <mxGeometry relative="1" as="geometry" />
        </mxCell>
        <mxCell id="THHTDaYiPmMmUgXNTNZC-25" value="" style="edgeStyle=orthogonalEdgeStyle;rounded=0;orthogonalLoop=1;jettySize=auto;html=1;" edge="1" parent="WIyWlLk6GJQsqaUBKTNV-1" source="THHTDaYiPmMmUgXNTNZC-15" target="THHTDaYiPmMmUgXNTNZC-24">
          <mxGeometry relative="1" as="geometry" />
        </mxCell>
        <mxCell id="THHTDaYiPmMmUgXNTNZC-15" value="a &amp;gt;= 60" style="rhombus;whiteSpace=wrap;html=1;" vertex="1" parent="WIyWlLk6GJQsqaUBKTNV-1">
          <mxGeometry x="344" y="420" width="140" height="80" as="geometry" />
        </mxCell>
        <mxCell id="THHTDaYiPmMmUgXNTNZC-17" value="False" style="text;html=1;align=center;verticalAlign=middle;resizable=0;points=[];autosize=1;strokeColor=none;fillColor=none;" vertex="1" parent="WIyWlLk6GJQsqaUBKTNV-1">
          <mxGeometry x="415" y="378" width="50" height="30" as="geometry" />
        </mxCell>
        <mxCell id="THHTDaYiPmMmUgXNTNZC-20" value="Output &quot; Loai B &quot;" style="shape=parallelogram;perimeter=parallelogramPerimeter;whiteSpace=wrap;html=1;fixedSize=1;" vertex="1" parent="WIyWlLk6GJQsqaUBKTNV-1">
          <mxGeometry x="600" y="430" width="160" height="60" as="geometry" />
        </mxCell>
        <mxCell id="THHTDaYiPmMmUgXNTNZC-23" value="True" style="text;html=1;align=center;verticalAlign=middle;resizable=0;points=[];autosize=1;strokeColor=none;fillColor=none;" vertex="1" parent="WIyWlLk6GJQsqaUBKTNV-1">
          <mxGeometry x="474" y="430" width="50" height="30" as="geometry" />
        </mxCell>
        <mxCell id="THHTDaYiPmMmUgXNTNZC-27" value="" style="edgeStyle=orthogonalEdgeStyle;rounded=0;orthogonalLoop=1;jettySize=auto;html=1;" edge="1" parent="WIyWlLk6GJQsqaUBKTNV-1" source="THHTDaYiPmMmUgXNTNZC-24" target="THHTDaYiPmMmUgXNTNZC-26">
          <mxGeometry relative="1" as="geometry" />
        </mxCell>
        <mxCell id="THHTDaYiPmMmUgXNTNZC-29" value="" style="edgeStyle=orthogonalEdgeStyle;rounded=0;orthogonalLoop=1;jettySize=auto;html=1;" edge="1" parent="WIyWlLk6GJQsqaUBKTNV-1" source="THHTDaYiPmMmUgXNTNZC-24" target="THHTDaYiPmMmUgXNTNZC-28">
          <mxGeometry relative="1" as="geometry" />
        </mxCell>
        <mxCell id="THHTDaYiPmMmUgXNTNZC-24" value="a &amp;gt;= 45" style="rhombus;whiteSpace=wrap;html=1;" vertex="1" parent="WIyWlLk6GJQsqaUBKTNV-1">
          <mxGeometry x="344" y="545" width="140" height="80" as="geometry" />
        </mxCell>
        <mxCell id="THHTDaYiPmMmUgXNTNZC-26" value="Output &quot; Loai C &quot;" style="shape=parallelogram;perimeter=parallelogramPerimeter;whiteSpace=wrap;html=1;fixedSize=1;" vertex="1" parent="WIyWlLk6GJQsqaUBKTNV-1">
          <mxGeometry x="150" y="555" width="160" height="60" as="geometry" />
        </mxCell>
        <mxCell id="THHTDaYiPmMmUgXNTNZC-37" style="edgeStyle=orthogonalEdgeStyle;rounded=0;orthogonalLoop=1;jettySize=auto;html=1;entryX=0;entryY=0.5;entryDx=0;entryDy=0;" edge="1" parent="WIyWlLk6GJQsqaUBKTNV-1" source="THHTDaYiPmMmUgXNTNZC-28" target="THHTDaYiPmMmUgXNTNZC-30">
          <mxGeometry relative="1" as="geometry" />
        </mxCell>
        <mxCell id="THHTDaYiPmMmUgXNTNZC-39" value="" style="edgeStyle=orthogonalEdgeStyle;rounded=0;orthogonalLoop=1;jettySize=auto;html=1;" edge="1" parent="WIyWlLk6GJQsqaUBKTNV-1" source="THHTDaYiPmMmUgXNTNZC-28" target="THHTDaYiPmMmUgXNTNZC-38">
          <mxGeometry relative="1" as="geometry" />
        </mxCell>
        <mxCell id="THHTDaYiPmMmUgXNTNZC-28" value="a &amp;gt;=35" style="rhombus;whiteSpace=wrap;html=1;" vertex="1" parent="WIyWlLk6GJQsqaUBKTNV-1">
          <mxGeometry x="344" y="670" width="140" height="80" as="geometry" />
        </mxCell>
        <mxCell id="THHTDaYiPmMmUgXNTNZC-30" value="Output &quot; Loai D &quot;" style="shape=parallelogram;perimeter=parallelogramPerimeter;whiteSpace=wrap;html=1;fixedSize=1;" vertex="1" parent="WIyWlLk6GJQsqaUBKTNV-1">
          <mxGeometry x="520" y="680" width="160" height="60" as="geometry" />
        </mxCell>
        <mxCell id="THHTDaYiPmMmUgXNTNZC-32" value="False" style="text;html=1;align=center;verticalAlign=middle;resizable=0;points=[];autosize=1;strokeColor=none;fillColor=none;" vertex="1" parent="WIyWlLk6GJQsqaUBKTNV-1">
          <mxGeometry x="414" y="500" width="50" height="30" as="geometry" />
        </mxCell>
        <mxCell id="THHTDaYiPmMmUgXNTNZC-33" value="False" style="text;html=1;align=center;verticalAlign=middle;resizable=0;points=[];autosize=1;strokeColor=none;fillColor=none;" vertex="1" parent="WIyWlLk6GJQsqaUBKTNV-1">
          <mxGeometry x="415" y="625" width="50" height="30" as="geometry" />
        </mxCell>
        <mxCell id="THHTDaYiPmMmUgXNTNZC-34" value="True" style="text;html=1;align=center;verticalAlign=middle;resizable=0;points=[];autosize=1;strokeColor=none;fillColor=none;" vertex="1" parent="WIyWlLk6GJQsqaUBKTNV-1">
          <mxGeometry x="304" y="555" width="50" height="30" as="geometry" />
        </mxCell>
        <mxCell id="THHTDaYiPmMmUgXNTNZC-35" value="True" style="text;html=1;align=center;verticalAlign=middle;resizable=0;points=[];autosize=1;strokeColor=none;fillColor=none;" vertex="1" parent="WIyWlLk6GJQsqaUBKTNV-1">
          <mxGeometry x="474" y="680" width="50" height="30" as="geometry" />
        </mxCell>
        <mxCell id="THHTDaYiPmMmUgXNTNZC-43" value="" style="edgeStyle=orthogonalEdgeStyle;rounded=0;orthogonalLoop=1;jettySize=auto;html=1;" edge="1" parent="WIyWlLk6GJQsqaUBKTNV-1" source="THHTDaYiPmMmUgXNTNZC-38" target="THHTDaYiPmMmUgXNTNZC-42">
          <mxGeometry relative="1" as="geometry" />
        </mxCell>
        <mxCell id="THHTDaYiPmMmUgXNTNZC-38" value="Output &quot; Loai E &quot;" style="shape=parallelogram;perimeter=parallelogramPerimeter;whiteSpace=wrap;html=1;fixedSize=1;" vertex="1" parent="WIyWlLk6GJQsqaUBKTNV-1">
          <mxGeometry x="334" y="790" width="160" height="60" as="geometry" />
        </mxCell>
        <mxCell id="THHTDaYiPmMmUgXNTNZC-40" value="False" style="text;html=1;align=center;verticalAlign=middle;resizable=0;points=[];autosize=1;strokeColor=none;fillColor=none;" vertex="1" parent="WIyWlLk6GJQsqaUBKTNV-1">
          <mxGeometry x="414" y="750" width="50" height="30" as="geometry" />
        </mxCell>
        <mxCell id="THHTDaYiPmMmUgXNTNZC-42" value="End" style="ellipse;whiteSpace=wrap;html=1;" vertex="1" parent="WIyWlLk6GJQsqaUBKTNV-1">
          <mxGeometry x="354" y="900" width="120" height="80" as="geometry" />
        </mxCell>
        <mxCell id="THHTDaYiPmMmUgXNTNZC-48" value="" style="endArrow=none;html=1;rounded=0;" edge="1" parent="WIyWlLk6GJQsqaUBKTNV-1">
          <mxGeometry width="50" height="50" relative="1" as="geometry">
            <mxPoint x="210" y="940" as="sourcePoint" />
            <mxPoint x="210" y="615" as="targetPoint" />
          </mxGeometry>
        </mxCell>
        <mxCell id="THHTDaYiPmMmUgXNTNZC-50" value="" style="endArrow=classic;html=1;rounded=0;" edge="1" parent="WIyWlLk6GJQsqaUBKTNV-1">
          <mxGeometry width="50" height="50" relative="1" as="geometry">
            <mxPoint x="210" y="940" as="sourcePoint" />
            <mxPoint x="350" y="940" as="targetPoint" />
          </mxGeometry>
        </mxCell>
        <mxCell id="THHTDaYiPmMmUgXNTNZC-51" value="" style="endArrow=none;html=1;rounded=0;" edge="1" parent="WIyWlLk6GJQsqaUBKTNV-1">
          <mxGeometry width="50" height="50" relative="1" as="geometry">
            <mxPoint x="610" y="940" as="sourcePoint" />
            <mxPoint x="610" y="740" as="targetPoint" />
          </mxGeometry>
        </mxCell>
        <mxCell id="THHTDaYiPmMmUgXNTNZC-52" value="" style="endArrow=classic;html=1;rounded=0;" edge="1" parent="WIyWlLk6GJQsqaUBKTNV-1">
          <mxGeometry width="50" height="50" relative="1" as="geometry">
            <mxPoint x="610" y="940" as="sourcePoint" />
            <mxPoint x="480" y="940" as="targetPoint" />
          </mxGeometry>
        </mxCell>
        <mxCell id="THHTDaYiPmMmUgXNTNZC-53" value="" style="endArrow=none;html=1;rounded=0;" edge="1" parent="WIyWlLk6GJQsqaUBKTNV-1">
          <mxGeometry width="50" height="50" relative="1" as="geometry">
            <mxPoint x="110" y="940" as="sourcePoint" />
            <mxPoint x="110" y="370" as="targetPoint" />
          </mxGeometry>
        </mxCell>
        <mxCell id="THHTDaYiPmMmUgXNTNZC-54" value="" style="endArrow=classic;html=1;rounded=0;" edge="1" parent="WIyWlLk6GJQsqaUBKTNV-1">
          <mxGeometry width="50" height="50" relative="1" as="geometry">
            <mxPoint x="110" y="940" as="sourcePoint" />
            <mxPoint x="210" y="940" as="targetPoint" />
          </mxGeometry>
        </mxCell>
        <mxCell id="THHTDaYiPmMmUgXNTNZC-56" value="" style="endArrow=none;html=1;rounded=0;" edge="1" parent="WIyWlLk6GJQsqaUBKTNV-1">
          <mxGeometry width="50" height="50" relative="1" as="geometry">
            <mxPoint x="730" y="940" as="sourcePoint" />
            <mxPoint x="730" y="490" as="targetPoint" />
          </mxGeometry>
        </mxCell>
        <mxCell id="THHTDaYiPmMmUgXNTNZC-57" value="" style="endArrow=classic;html=1;rounded=0;" edge="1" parent="WIyWlLk6GJQsqaUBKTNV-1">
          <mxGeometry width="50" height="50" relative="1" as="geometry">
            <mxPoint x="730" y="940" as="sourcePoint" />
            <mxPoint x="610" y="940" as="targetPoint" />
          </mxGeometry>
        </mxCell>
      </root>
    </mxGraphModel>
  </diagram>
</mxfile>
